<svg width="52" height="38" viewBox="0 0 52 38" fill="none" xmlns="http://www.w3.org/2000/svg">
<path d="M3 16.5C1.61929 16.5 0.5 17.6193 0.5 19C0.5 20.3807 1.61929 21.5 3 21.5L3 16.5ZM50.7678 20.7678C51.7441 19.7915 51.7441 18.2085 50.7678 17.2322L34.8579 1.32233C33.8816 0.346017 32.2986 0.346017 31.3223 1.32233C30.346 2.29864 30.346 3.88155 31.3223 4.85786L45.4645 19L31.3223 33.1421C30.346 34.1184 30.346 35.7014 31.3223 36.6777C32.2986 37.654 33.8816 37.654 34.8579 36.6777L50.7678 20.7678ZM3 21.5L49 21.5L49 16.5L3 16.5L3 21.5Z" fill="black"/>
</svg>
